<svg width="200" height="200" viewBox="0 0 200 200" fill="none" xmlns="http://www.w3.org/2000/svg">
  <!-- Owl Body -->
  <ellipse cx="100" cy="120" rx="60" ry="70" fill="#4F46E5"/>
  
  <!-- Owl Head -->
  <circle cx="100" cy="70" r="50" fill="#4F46E5"/>
  
  <!-- Ears/Tufts -->
  <path d="M 65 35 Q 60 20 70 25 L 75 40 Z" fill="#3730A3"/>
  <path d="M 135 35 Q 140 20 130 25 L 125 40 Z" fill="#3730A3"/>
  
  <!-- Eye whites -->
  <circle cx="80" cy="70" r="18" fill="white"/>
  <circle cx="120" cy="70" r="18" fill="white"/>
  
  <!-- Pupils -->
  <circle cx="80" cy="70" r="10" fill="#1E293B"/>
  <circle cx="120" cy="70" r="10" fill="#1E293B"/>
  
  <!-- Eye shine -->
  <circle cx="83" cy="67" r="4" fill="white"/>
  <circle cx="123" cy="67" r="4" fill="white"/>
  
  <!-- Beak -->
  <path d="M 100 80 L 95 90 L 105 90 Z" fill="#F59E0B"/>
  
  <!-- Wings -->
  <ellipse cx="55" cy="130" rx="20" ry="35" fill="#3730A3" transform="rotate(-20 55 130)"/>
  <ellipse cx="145" cy="130" rx="20" ry="35" fill="#3730A3" transform="rotate(20 145 130)"/>
  
  <!-- Feet -->
  <path d="M 85 180 L 80 195 M 85 180 L 85 195 M 85 180 L 90 195" stroke="#F59E0B" stroke-width="3" stroke-linecap="round"/>
  <path d="M 115 180 L 110 195 M 115 180 L 115 195 M 115 180 L 120 195" stroke="#F59E0B" stroke-width="3" stroke-linecap="round"/>
  
  <!-- Chest pattern -->
  <ellipse cx="100" cy="130" rx="35" ry="45" fill="#6366F1" opacity="0.6"/>
  
  <!-- AI Symbol on chest -->
  <text x="100" y="140" font-family="Arial, sans-serif" font-size="24" font-weight="bold" fill="white" text-anchor="middle">AI</text>
  
  <!-- Graduation cap -->
  <rect x="70" y="30" width="60" height="8" fill="#1E293B" rx="2"/>
  <path d="M 60 30 L 100 20 L 140 30 L 100 35 Z" fill="#1E293B"/>
  <circle cx="140" cy="30" r="3" fill="#F59E0B"/>
  <line x1="140" y1="30" x2="140" y2="45" stroke="#F59E0B" stroke-width="2"/>
</svg>
